# xmcd CD database file generated by Grip 2.96
# 
# Track frame offsets:
#       225
#       14818
#       34163
#       74109
#       107418
#       125098
#       140090
#       155125
#       169598
#       187709
#       211869
#       246444
#       262035
# 
# Disc length: 3784 seconds
# 
# Revision: 0
# Processed by: cddbd v1.4b42PL1 Copyright (c) Steve Scherf et al.
# Submitted via: Grip 2.96
# 
DISCID=c80ec50d
DTITLE=The Shadows - One Night Of Sin
DYEAR=1900
DGENRE=
TTITLE0=Tribute To Memphis Slim - Stroll On Little Girl
TTITLE1=Tribute To Memphis Slim - Rockin The Hous
TTITLE2=Coffee Break
TTITLE3=Big Leg Woman (With A Short Miniskirt)
TTITLE4=A Quiet Place
TTITLE5=Gonna Stick To You Baby
TTITLE6=I'm Holding On
TTITLE7=One Night
TTITLE8=Stop Me! Before I Love Again
TTITLE9=The Seventh Son
TTITLE10=Cold As Hell
TTITLE11=The Stuff You Gotta Watch
TTITLE12=Dearest Darling
EXTD=
EXTT0=
EXTT1=
EXTT2=
EXTT3=
EXTT4=
EXTT5=
EXTT6=
EXTT7=
EXTT8=
EXTT9=
EXTT10=
EXTT11=
EXTT12=
PLAYORDER=
